inDegrees=no
num_controls=7
num_derivatives=13
num_iterations=118
num_multipliers=7
num_parameters=0
num_slacks=7
num_states=26
objective=0.497134
objective_accelerations=0.041926
objective_balance=0.003552
objective_effort=0.039577
objective_height=0.406246
objective_ligament=0.005833
solver_duration=1335.833006
status=Solve_Succeeded
success=true
DataType=double
version=3
OpenSimVersion=4.5
endheader
time	/jointset/ground_pelvis/pelvis_tilt/value	/jointset/ground_pelvis/pelvis_tx/value	/jointset/ground_pelvis/pelvis_ty/value	/jointset/hip_r/hip_flexion_r/value	/jointset/hip_r/hip_adduction_r/value	/jointset/hip_r/hip_rotation_r/value	/jointset/back/lumbar_extension/value	/jointset/patellofemoral_r/patellar_flexion_r/value	/jointset/knee_r/knee_flexion_r/value	/jointset/knee_r/knee_adduction_r/value	/jointset/knee_r/knee_rotation_r/value	/jointset/ankle_r/ankle_angle_r/value	/jointset/subtalar_r/subtalar_angle_r/value	/jointset/ground_pelvis/pelvis_tilt/speed	/jointset/ground_pelvis/pelvis_tx/speed	/jointset/ground_pelvis/pelvis_ty/speed	/jointset/hip_r/hip_flexion_r/speed	/jointset/hip_r/hip_adduction_r/speed	/jointset/hip_r/hip_rotation_r/speed	/jointset/back/lumbar_extension/speed	/jointset/patellofemoral_r/patellar_flexion_r/speed	/jointset/knee_r/knee_flexion_r/speed	/jointset/knee_r/knee_adduction_r/speed	/jointset/knee_r/knee_rotation_r/speed	/jointset/ankle_r/ankle_angle_r/speed	/jointset/subtalar_r/subtalar_angle_r/speed	/forceset/tau_hip_flexion_r	/forceset/tau_hip_adduction_r	/forceset/tau_hip_rotation_r	/forceset/tau_knee_flexion_r	/forceset/tau_ankle_angle_r	/forceset/tau_subtalar_angle_r	/forceset/tau_lumbar_extension	lambda_cid13_p0	lambda_cid14_p0	lambda_cid14_p1	lambda_cid14_p2	lambda_cid14_p3	lambda_cid14_p4	lambda_cid14_p5	/jointset/ground_pelvis/pelvis_tilt/accel	/jointset/ground_pelvis/pelvis_tx/accel	/jointset/ground_pelvis/pelvis_ty/accel	/jointset/hip_r/hip_flexion_r/accel	/jointset/hip_r/hip_adduction_r/accel	/jointset/hip_r/hip_rotation_r/accel	/jointset/back/lumbar_extension/accel	/jointset/patellofemoral_r/patellar_flexion_r/accel	/jointset/knee_r/knee_flexion_r/accel	/jointset/knee_r/knee_adduction_r/accel	/jointset/knee_r/knee_rotation_r/accel	/jointset/ankle_r/ankle_angle_r/accel	/jointset/subtalar_r/subtalar_angle_r/accel	gamma_cid13_p0	gamma_cid14_p0	gamma_cid14_p1	gamma_cid14_p2	gamma_cid14_p3	gamma_cid14_p4	gamma_cid14_p5
0.5	-0.1360288657902734	0.03516428209904202	0.8423878735699295	0.8040463507445116	-0.2432439714565173	-0.09833418489338695	-0.3228463694270084	0.7679876457296275	0.7679876457296059	0.0674297812749418	0.1745259730871493	0.2688789137239376	0.0398589031518144	-0.3598347069426844	-0.1261736248657267	-0.4132866332059658	1.715708547246864	-0.02604593031529633	0.3840093701775311	-0.5983921038846491	1.880902662283501	1.880902662283475	-0.1804356653888244	-2.442882835092036e-05	0.6133159076675392	0.1256313578224728	-0.0993886919498331	-0.02064717651663971	0.01306499560815627	-0.3528738034900903	0.07270538755103194	-0.01095514300636119	0.1508201168961798	-27.34848039026522	-18.56197387308177	-4.166194406122781	-3.263961964423879	2.553492640176826	-664.4087665223838	59.69898238230427	0.1795292043746906	0.3567047260315366	-0.4326308449209991	-0.9808839962627435	0.07677288285913986	-0.3450768339874503	1.4118168331991	-1.268116763746634	-1.268116763746631	0.5128761971169691	-0.02567488830351839	-0.5702010793793613	0.02823571187056132	-1.337147841665011e-07	-8.602207809006673e-08	1.333488137771569e-06	-6.775864639870945e-07	-9.3246293509073e-08	-1.591301120587104e-07	9.604278300541617e-07
0.51	-0.1396176132496513	0.03392054676217982	0.838234306376147	0.8211517204051543	-0.2435011892824749	-0.09451216872465848	-0.328759049526208	0.7867304678842195	0.7867304678842113	0.06565200567330938	0.1745257275702116	0.2749824441765453	0.04111555681565859	-0.357864836548529	-0.1225591877274061	-0.4173326086416737	1.705128799975922	-0.02539517310130742	0.3803674898197182	-0.584068280945256	1.867395173453546	1.867395173453531	-0.1751197140097538	-2.163119256663593e-05	0.6073041005160478	0.1256809211137369	-0.1053586638857414	-0.01865355104564599	0.01352500928357228	-0.3563818794876225	0.06910712459546907	-0.01019014709087758	0.1562273028601422	-26.20209635318522	-19.89814280357663	-4.196762447903739	-3.111908182198506	3.055024643244808	-668.4319201751124	59.53995755017252	0.2131998942506102	0.3659329297710623	-0.3764811049428156	-1.13201777230049	0.05959655544379734	-0.3778765231820196	1.454010275804986	-1.432028365882752	-1.432028365881067	0.5410754444023629	0.01361064714297182	-0.6296123528597221	-0.009325253963693967	-1.249397094178193e-07	-7.853471750760395e-08	1.250969424829313e-06	-6.333757621446872e-07	-9.112843014927788e-08	-1.40654411310915e-07	9.019244149875015e-07
0.52	-0.1431851652176246	0.03271337974110856	0.8340430993855983	0.8381441930571296	-0.2437518256533369	-0.09072739793680919	-0.3345262223457147	0.8053302224658601	0.8053302224658646	0.0639274137526897	0.1745255807411559	0.2810232681936729	0.04237217773407188	-0.3555956086617871	-0.1188599617075393	-0.4208145925592705	1.693129145513355	-0.02472963929631874	0.3765602940017531	-0.5692906479460397	1.852289147693079	1.852289147693076	-0.1697989291866736	-4.69125183944055e-06	0.600774620571529	0.1256248087362803	-0.111328635821648	-0.01665992557464938	0.01398502295898021	-0.3598899554851541	0.06550886163990718	-0.009425151175389708	0.1616344888241058	-25.04637532017279	-21.23993085277627	-4.225610309093893	-2.963217551661665	3.552075513878994	-672.5479704729323	59.43534392205454	0.2394007028919853	0.3736625023407636	-0.3198325412987991	-1.264865434587735	0.07972820105909152	-0.3781399260179027	1.502578845163747	-1.587824149848856	-1.587824149848855	0.5138428859188877	-0.0228464273149372	-0.6737356379848255	0.007100578126441633	-1.161912108459823e-07	-7.142684666832066e-08	1.167992444770982e-06	-5.897995830128037e-07	-8.840916238836483e-08	-1.243144657168085e-07	8.435032407946088e-07
0.53	-0.1467286038188695	0.03154358978575426	0.8298199233951452	0.8550097525167025	-0.2439956796102545	-0.0869813945201225	-0.3401434176660555	0.8237710881902101	0.8237710881902022	0.06225594596281631	0.174525527530419	0.2869963096878029	0.0436277841535271	-0.3530449043723618	-0.1150872580820605	-0.4237222716912954	1.679753242793311	-0.02403948372080558	0.3726190855535926	-0.5540843560693466	1.835627536027182	1.835627536027189	-0.1644937529084665	-6.236118859084128e-06	0.5937537496456705	0.1254775453558373	-0.117150449655972	-0.01479508953098898	0.01442457956708802	-0.36356514331503	0.06214254710642069	-0.008768326143791704	0.1669149162675684	-23.88365431837378	-22.51682354468484	-4.296862288176415	-2.800012585081935	4.029258744431162	-676.7232089874996	59.28901032226275	0.2699787811802662	0.3806725886765472	-0.2615086695193858	-1.408386930164639	0.06390573604142614	-0.4054609948486364	1.539263366830262	-1.743776528223411	-1.743776528221872	0.5391263081748702	0.01106230871982146	-0.728277840547929	-0.02836917367388123	-1.08050806981952e-07	-6.455893323499386e-08	1.094532853239659e-06	-5.468758902976067e-07	-8.623371875282044e-08	-1.096223259624804e-07	7.907510035400894e-07
0.54	-0.1502451206793776	0.03041184652585976	0.8255706159992988	0.8717346661011851	-0.2442325827113677	-0.08327547312604414	-0.3456066282660477	0.8420376484272489	0.8420376484272282	0.06063758419760727	0.1745254330360349	0.292896739468542	0.04488137206366911	-0.3502112605144376	-0.1112506226155807	-0.4260408736379255	1.664999970495194	-0.02333946813553403	0.3685438894800918	-0.5384937038763259	1.817428050230754	1.817428050230772	-0.1591777242541305	-1.29479812666747e-05	0.5862522778933489	0.125221106873626	-0.1229722634902939	-0.01293025348732521	0.01486413617518774	-0.3672403311449054	0.05877623257293529	-0.008111501112188628	0.1721953437110324	-22.71669223787115	-23.80025439186582	-4.36681555170125	-2.639805880729782	4.504593118546197	-681.0037760104656	59.19382571041437	0.2959886165917582	0.3864488705409768	-0.2020171042198225	-1.540339350202224	0.08170020301076569	-0.4049374510859756	1.579450908429286	-1.895398975955035	-1.89539897595499	0.5160133611446392	-0.02387982639252721	-0.7698558032774808	-0.01473444222721577	-1.005831887520908e-07	-5.795650459123591e-08	1.031603138376515e-06	-5.046740974476802e-07	-8.465995287300303e-08	-9.675329054152426e-08	7.442707816216431e-07
0.55	-0.1537319521545828	0.02931874529759799	0.8213010886802887	0.8883053358578694	-0.2444623856888547	-0.07961096333337969	-0.3509120930780833	0.8601146906652144	0.8601146906652116	0.05907227406864959	0.1745251888507751	0.2987198435992065	0.04613192246763721	-0.3471110529187162	-0.1073627917997067	-0.4277635670061446	1.648913822596037	-0.02261979626767556	0.3643337969070964	-0.5225463021304619	1.797736015069819	1.797736015069802	-0.1538881587981923	-3.422390829798252e-05	0.5782948900260394	0.1248703036181779	-0.1286442336462602	-0.0112086862883315	0.01528684762511923	-0.3709927843474852	0.05555678022546109	-0.007523058012981814	0.1773346020640249	-21.54859120711509	-25.04031167611443	-4.462738315922774	-2.471043337149447	4.978548021656285	-685.269662540606	59.08124904387722	0.3236273871898015	0.3909581123721763	-0.1422599261927121	-1.675783613981017	0.06729661225420482	-0.4328206298793279	1.61032826770484	-2.042743828058158	-2.042743828063453	0.5349749755038492	0.008927956974620834	-0.8197519631291065	-0.04795374609993932	-9.314310155765185e-08	-5.259539996135677e-08	9.671392890231167e-07	-4.653135217631615e-07	-8.12746999522461e-08	-8.766729485145743e-08	6.975387054195686e-07
0.5600000000000001	-0.1571864634426054	0.02826472396254726	0.8170173615329825	0.9047085379147206	-0.2446849527609468	-0.0759893095603396	-0.3560564951806522	0.8779874849431916	0.8779874849432063	0.05755976896178912	0.1745247677928124	0.3044611595142636	0.04737842474327159	-0.3437472230778952	-0.1034346439733731	-0.4288808392971576	1.631506430528533	-0.02189228705658575	0.359972685555181	-0.5062811619830017	1.776578458233067	1.776578458233014	-0.1486167198348372	-4.83225220071562e-05	0.5698946347718733	0.1244114812068766	-0.1343162038022241	-0.009487119089334594	0.01570955907504829	-0.3747452375500645	0.05233732787798785	-0.006934614913770245	0.182473860417019	-20.38296206622491	-26.28728455679769	-4.557426626949884	-2.305270835783766	5.451872347237205	-689.6455059359738	59.01658268733889	0.3487130656116826	0.3945122726329143	-0.08093288877860895	-1.804588183871813	0.08326767165702961	-0.4351412068699591	1.642998588748538	-2.188503311118563	-2.188503311118563	0.5123880626280392	-0.02244436372810046	-0.8584292806487823	-0.03633827339785841	-8.573605160571973e-08	-4.872388414813216e-08	9.008344782814136e-07	-4.293624066771324e-07	-7.571566258236176e-08	-8.312094683845769e-08	6.505044040771403e-07
0.5700000000000001	-0.1606060356042641	0.02725014175481944	0.8127255126433328	0.9209311562202369	-0.2449001493541057	-0.07241204581675656	-0.3610368209933243	0.8956414979853793	0.8956414979853863	0.05609970905579963	0.1745241816627741	0.3101163350604134	0.04861987753547298	-0.3401260688521578	-0.09947886170380341	-0.4293862086842956	1.612806137894906	-0.02114576717196733	0.355447844027138	-0.4897443919515173	1.753991938299881	1.753991938299893	-0.1434077475997505	-6.313108708089308e-05	0.561073070900897	0.1238611434653116	-0.1397939235387733	-0.007879485523642619	0.0161156185726895	-0.3785863002932966	0.04930001730450756	-0.006433056009631834	0.1874275546420852	-19.22625289609493	-27.47762712000034	-4.685917078374264	-2.127274226231819	5.918902859975786	-693.9564959484711	58.91457811948473	0.3749820816505411	0.3965370701544733	-0.01994558126072304	-1.934419943806478	0.07052888889967088	-0.4661046032111216	1.664957500326368	-2.328541810888907	-2.328541810879201	0.5233882334041782	0.009809289769828632	-0.9041508100569636	-0.06698401659914975	-7.809238508706557e-08	-4.357660384883428e-08	8.355900628559785e-07	-3.885193530436133e-07	-7.163998989443611e-08	-7.588178226341743e-08	6.039729777524649e-07
0.58	-0.1639881631275465	0.02627520254299439	0.8084316887362958	0.9369604375712773	-0.2451078438000115	-0.06888102028394108	-0.365850590847686	0.9130626827329422	0.9130626827329407	0.05469138615805413	0.1745236091256163	0.3156812687939064	0.04985530645184607	-0.3362582954025888	-0.09550604479281857	-0.4292758427746105	1.592839039633346	-0.02039185760593381	0.3507250434015102	-0.4729699703209138	1.730012799307883	1.730012799307959	-0.1382693181864569	-4.56039454808362e-05	0.5518462722405246	0.1232067060412139	-0.1452716432753194	-0.006271851957945822	0.01652167807029961	-0.3824273630365275	0.04626270673102891	-0.005931497105485527	0.1923812488671536	-18.08212247603286	-28.67358746675804	-4.813214821128533	-1.951953739842442	6.381370158441889	-698.3576150689923	58.8543385547794	0.3980369103780246	0.3979192009159438	0.04221417058598226	-2.057949309458248	0.08474560794004637	-0.4747330263868887	1.690528908572343	-2.467027122881012	-2.467027122881012	0.4982794982694335	-0.01597722239334219	-0.9394762385280055	-0.05715820990439054	-7.014056676058746e-08	-3.676786282348763e-08	7.717266273773118e-07	-3.413054026970845e-07	-6.949614097836357e-08	-6.513569379362698e-08	5.580964584276538e-07
